<svg width="54" height="47" viewBox="0 0 54 47" fill="none" xmlns="http://www.w3.org/2000/svg">
<path d="M28.3232 12.313L28.1694 12.2671C27.745 12.1405 27.5028 11.694 27.6295 11.269L28.3232 12.313ZM28.3232 12.313L28.336 12.2983M28.3232 12.313L28.336 12.2983M28.336 12.2983C28.7065 12.3279 29.0584 12.0955 29.1678 11.7266C30.0353 8.81164 32.7694 6.77437 35.8147 6.77437C36.2579 6.77437 36.6173 6.41494 36.6173 5.97176C36.6173 5.52856 36.2579 5.16915 35.8147 5.16915C31.9356 5.16915 28.6761 7.75193 27.6295 11.2689L28.336 12.2983Z" fill="#BC1256" stroke="#BC1256" stroke-width="0.5"/>
<path d="M40.2352 33.2994L43.5505 33.2995C48.8684 33.2995 53.1948 28.9736 53.1948 23.6552C53.1948 18.6048 49.2938 14.4496 44.3462 14.044C44.5419 9.23544 40.674 5.16975 35.8141 5.16975C34.2838 5.16975 32.8116 5.5695 31.5087 6.33362C27.2247 -0.556748 17.4119 -1.19021 12.2666 5.1044L12.2666 5.10442C10.2069 7.62454 9.28604 10.8352 9.67708 14.0377C4.69264 14.4058 0.75 18.5787 0.75 23.6556C0.75 28.9736 5.07632 33.2999 10.3943 33.2999H13.7099C14.1531 33.2999 14.5125 32.9404 14.5125 32.4973C14.5125 32.0541 14.153 31.6947 13.7099 31.6947H10.3943C5.96198 31.6947 2.35526 28.0879 2.35526 23.6556C2.35526 19.2233 5.96198 15.6166 10.3943 15.6166H10.6157C11.1221 15.6166 11.5032 15.1523 11.4023 14.6542L11.4023 14.6541C10.7867 11.6218 11.5547 8.51166 13.5095 6.12028C18.1498 0.443939 27.0997 1.32049 30.5263 7.84541L30.5264 7.8455C30.7551 8.28057 31.3169 8.40951 31.7123 8.11892L31.7124 8.11887C32.9088 7.23911 34.3265 6.77451 35.8143 6.77451C39.6372 6.77451 42.7481 9.8855 42.7481 13.7084C42.7481 14.0329 42.7242 14.3668 42.6765 14.6996C42.6432 14.9302 42.7122 15.1635 42.8644 15.3392C43.017 15.5153 43.2383 15.6162 43.471 15.6162H43.5507C47.983 15.6162 51.5898 19.2229 51.5898 23.6552C51.5898 28.0875 47.983 31.6942 43.5507 31.6942H40.2352C39.792 31.6942 39.4326 32.0537 39.4326 32.4968C39.4326 32.94 39.792 33.2994 40.2352 33.2994Z" fill="#BC1256" stroke="#BC1256" stroke-width="0.5"/>
<path d="M12.8332 32.1848C12.8332 39.9406 19.1427 46.25 26.8984 46.25C34.6542 46.25 40.9636 39.9405 40.9636 32.1848C40.9636 24.4289 34.6542 18.1196 26.8984 18.1196C19.1426 18.1196 12.8332 24.429 12.8332 32.1848ZM14.4387 32.1848C14.4387 25.3148 20.0283 19.725 26.8984 19.725C33.7684 19.725 39.3582 25.3147 39.3582 32.1848C39.3582 39.0548 33.7684 44.6445 26.8984 44.6445C20.0284 44.6445 14.4387 39.0549 14.4387 32.1848Z" fill="#BC1256" stroke="#BC1256" stroke-width="0.5"/>
<path d="M26.4964 37.7463C26.4964 38.1077 26.7895 38.4008 27.151 38.4008C27.5123 38.4008 27.8055 38.1081 27.8055 37.7463V27.2274C27.8055 26.866 27.5124 26.5729 27.151 26.5729C26.7895 26.5729 26.4964 26.866 26.4964 27.2274V37.7463Z" fill="#BC1256" stroke="#BC1256" stroke-width="0.5"/>
<path d="M27.1509 28.1541L24.3774 30.9276C24.3774 30.9277 24.3773 30.9278 24.3773 30.9278C24.1217 31.1837 23.7071 31.1834 23.4515 30.9278C23.1958 30.6721 23.1958 30.2578 23.4515 30.0021L26.6879 26.7657L27.1509 28.1541ZM27.1509 28.1541L29.9246 30.9278C29.9246 30.9278 29.9246 30.9278 29.9246 30.9278C30.0523 31.0555 30.2204 31.1195 30.3874 31.1195L27.1509 28.1541ZM27.6138 26.7656C27.3582 26.51 26.9436 26.5097 26.6881 26.7656L30.3875 31.1195C30.5539 31.1195 30.7223 31.0561 30.8503 30.9278C30.8503 30.9278 30.8504 30.9277 30.8504 30.9276C31.106 30.6719 31.1059 30.2577 30.8503 30.0021L27.6138 26.7656Z" fill="#BC1256" stroke="#BC1256" stroke-width="0.5"/>
</svg>
